<svg xmlns="http://www.w3.org/2000/svg" width="1365.333" height="846.667" version="1.0" viewBox="0 0 1024 635"><path d="M591 28v10l-17.2.2-17.3.3-.3 9.2-.3 9.3H506v21h-36v18h-35v20h-34.9l-.3 9.2-.3 9.3-16.2.3-16.3.2v261h34v15h254l.1-6.5c.1-3.6.2-7.1.3-7.8.1-.9 2.9-1.2 10.3-1.2H676V175l-102.2-.2-102.3-.3-.3-10.3-.3-10.2h51l.3-9.8.3-9.7 17.3-.3 17.2-.2v-18h51V97h35V77h17V37.5h-16.5l-.3-9.8-.3-9.7H591zm35 29.5V77h-34v18h-52.5V78H575V57h33V38h18zm-104 49v9.5h-17v18h-51v-17h34V97h34zm-68 37v8.5h-36v-17h36zm153.8 60.8.3 8.8-8.6-.3-8.5-.3V231h-52v-18h18v-18l25.3.2 25.2.3zm-102.8.2v8.5h-36v18h-34v-18h17v-17h53zm154 8.4v16.9l-11.2.7c-6.2.4-14 .5-17.3.3l-6-.3-.3-8.8-.3-8.7H643v-17h16zm-21 83.6V307H452v-21h186zM114.5 486.1c-20.2 3-38 15.8-46.5 33.5-10.7 22.3-7.6 49.5 7.7 68 10.7 12.8 26.2 20.3 43.8 21.2 12.2.5 19.4-1 31.5-7 6.9-3.4 10.2-5.8 17.8-13.5l9.4-9.3-16.8-12.2-16.8-12.3-5.6 5.7c-6.3 6.5-11.2 8.4-18.3 7.4-13.5-2-21.2-17.8-14.5-29.7 5.7-10.4 15.8-13.6 26.3-8.4 3 1.4 6.9 4.3 8.7 6.4l3.1 3.8 14.2-10.1c7.8-5.6 15.4-11 16.9-12.2l2.8-2-7.4-7.9c-12-12.9-22.5-18.5-39.3-21.1-4.9-.8-9.4-1.3-10-1.3-.5.1-3.7.5-7 1m22.4 9.4c8.5 2 17.3 6.8 24.1 13.2l5.5 5.2-2.5 1.8c-1.3 1-6.1 4.4-10.6 7.5l-8.1 5.7-2.2-2.3c-3.9-4.2-11.1-7-18.7-7.4-6.1-.3-7.9 0-12.7 2.3-14.1 6.6-20.2 23.8-13.4 37.8 6.2 12.6 20 19.2 32.7 15.7 3-.8 9.9-4.8 14.5-8.4.7-.5 4.6 1.8 10.8 6.4l9.8 7.3-3.8 3.9c-5.1 5.2-14.6 11.3-21.8 13.9-8.9 3.3-25.5 3.3-34.8.1-16.4-5.7-28.4-18.2-33.7-35.1-2.2-7.1-2.7-21.4-.9-29.1 4.1-17.8 20.4-34 38.7-38.4 7.6-1.9 19.3-1.9 27.1-.1M238.2 486.1c-13.6 2-28.9 10.2-37.7 20.2-9.1 10.3-15.5 27.3-15.5 41.2 0 32.1 26.3 59.5 58.6 61.3 30.4 1.6 57-17.9 63.8-46.8 3.1-13.2 1.7-29.1-3.8-41.3-10.6-23.7-38.7-38.5-65.4-34.6m22.3 9.1c19.2 4.1 35.9 21.5 39.6 41.3 4.5 23.9-7.9 48.6-29.6 59-25.6 12.4-57.7 1.9-70.6-23-4.6-8.9-6.2-15.8-6.1-26.5.3-34.4 31.7-58.3 66.7-50.8"/><path d="M235.5 521.4c-21.2 9.8-21.8 40.5-1.1 51.4 4.2 2.2 6.4 2.7 12.6 2.7 12.1 0 20.9-5.5 26.1-16.3 3.4-7 3.2-17.9-.3-24.8-3-5.8-8.3-10.8-14.2-13.5-6.1-2.8-16.7-2.5-23.1.5m21.6 7.9c14.8 7.8 13.4 30.6-2.3 37.2-9.7 4-20.5-.2-25.3-9.9-9-18 9.9-36.6 27.6-27.3M488.8 486.7l-41.8.3v121h84v-40l-8.2-.2c-4.6-.1-6.4-.3-4-.5l4.2-.4V527h8v-20.5c0-11.3-.1-20.4-.2-20.3-.2.2-19.1.4-42 .5M523 507v12h-42v15h34v24h-34v18h42v24h-68V495h68zM594.8 486.7l-42.8.3v121h42v-42h38v-39h2.9c6.3 0 6.1.7 6.1-21.1 0-18.4-.1-19.9-1.7-19.7-1 .2-21 .4-44.5.5m38.6 11.8c.4 2 .4 7.4 0 12l-.7 8.5H586v15h39.1l-.3 11.7-.3 11.8-19.2.3-19.3.2v42.1l-12.7-.3-12.8-.3-.1-52.3-.1-52.2h72.5zM930.5 486.8l-25 .3L897 500c-4.7 7.1-8.7 13-9.1 13-.3 0-4.5-5.9-9.4-13l-8.8-13h-49.9l2 3.2c1.2 1.8 10.2 15.1 20.1 29.5 10 14.4 18.1 26.6 18.1 27.1s-2.5 4.4-5.5 8.6-12.3 17.7-20.5 30.1L819 608h49.5l9.4-14c5.2-7.7 9.8-14 10.1-14s4.9 6.3 10.1 14l9.4 14h49.6l-3.7-5.8c-2-3.1-11.2-16.8-20.5-30.4s-16.9-25-16.9-25.4c0-.3 6.2-9.7 13.8-20.8 18.3-26.6 26.4-38.7 26-38.9-.2-.1-11.5-.1-25.3.1m-58.5 18c3.5 5.3 8.5 12.9 11.1 16.9l4.6 7.2 11.1-16.9 11.2-17h15c8.3 0 15 .3 15 .6 0 .4-7.5 11.4-16.6 24.6s-16.8 24.7-17 25.6c-.3 1 3 6.8 7.8 13.7 4.6 6.6 12.8 18.4 18.1 26.3l9.8 14.2h-29.9l-11.8-17.5c-6.6-9.6-12.1-17.4-12.4-17.4s-5.9 7.8-12.4 17.4L863.7 600H834l6.9-10.3c3.8-5.6 12.1-17.6 18.4-26.6l11.5-16.3-14.7-21.2c-8.1-11.6-16.2-23.2-17.9-25.9l-3.3-4.7h30.6zM323.2 547.2l.3 60.3h28c26.1-.1 28.5-.2 35.9-2.3 12.7-3.7 20.3-7.9 28.1-15.7 12.2-12.2 16.9-24.3 16.8-43 0-7.3-.6-13-1.7-17-5.4-18.5-19-32.1-39.1-39.1-8-2.8-8.2-2.8-38.3-3.2l-30.2-.4zm62.3-49.8c14.3 3.9 26.6 13.1 32.7 24.3 8 14.7 8.1 35 .1 50.7-3.5 6.9-13.6 16.7-21.1 20.5-10.6 5.3-16.3 6.3-42.4 6.8l-23.8.5V494.8l24.3.5c18 .3 25.7.9 30.2 2.1"/><path d="M357.8 519.5c-.4.4-.7 13.3-.8 28.8l-.1 28 9.2-.7c14.5-1.1 23.2-4.9 28.2-12.4 3.5-5.4 4.7-9.7 4.7-16.9 0-11.3-4.7-18.9-14.8-23.6-5.4-2.5-8-3.1-16.1-3.5-5.3-.2-9.9-.1-10.3.3m24 11.2c16.7 10.3 9.6 34.2-10.7 36l-6.1.6v-40.6l6.1.6c4.2.4 7.5 1.4 10.7 3.4M660 547.5V608h87v-40h-44v-81h-43zm34-12V576h45v24h-71V495h26zM768 547.5V608h42V487h-42zm33.3-35.3c.4 9.5.7 33.2.7 52.5V600h-26V495h24.700000000000003z"/></svg>